<?xml version="1.0" standalone="no"?><!DOCTYPE svg PUBLIC "-//W3C//DTD SVG 1.1//EN" "http://www.w3.org/Graphics/SVG/1.1/DTD/svg11.dtd"><svg t="1712380579818" class="icon" viewBox="0 0 1024 1024" version="1.1" xmlns="http://www.w3.org/2000/svg" p-id="2003" xmlns:xlink="http://www.w3.org/1999/xlink" width="128" height="128"><path d="M663.89 152.256s-63.456 64.454-111.92 15.988S531.956 8.36 531.956 8.36s-347.72 191.864-347.72 551.606v3.998c0 181.028 146.738 327.766 327.766 327.766 181.026 0 327.766-146.738 327.766-327.766v-3.998c-0.002-231.836-175.878-407.71-175.878-407.71z" fill="#FC6E51" p-id="2004"></path><path d="M663.89 152.256s-7.12 7.152-18.284 14.88c41.298 46.888 162.18 200.56 162.18 392.828v3.998c0 175.626-138.228 318.568-311.776 326.956 5.34 0.264 10.586 0.81 15.988 0.81 181.026 0 327.766-146.738 327.766-327.766v-3.998c0.002-231.834-175.874-407.708-175.874-407.708z" opacity=".2" p-id="2005"></path><path d="M216.21 563.962v-3.998c0-287.668 222.202-467.852 311.292-528.56 2.17-13.926 4.452-23.046 4.452-23.046s-347.72 191.864-347.72 551.606v3.998c0 181.028 146.738 327.766 327.766 327.766 5.402 0 10.648-0.546 15.988-0.81-173.548-8.386-311.778-151.33-311.778-326.956z" fill="#FFFFFF" opacity=".3" p-id="2006"></path><path d="M647.872 951.686l-31.978 31.978H408.042l-31.978-31.978v-111.92h271.808z" fill="#AAB2BD" p-id="2007"></path><path d="M408.042 839.766h-31.978v111.92l31.978 31.978h31.978l-31.978-31.978z" fill="#FFFFFF" opacity=".4" p-id="2008"></path><path d="M615.894 839.766h31.978v111.92l-31.978 31.978h-31.978l31.978-31.978z" opacity=".3" p-id="2009"></path><path d="M775.78 559.964c0-145.708-118.118-263.81-263.81-263.81s-263.812 118.104-263.812 263.81c0 95.916 51.354 179.624 127.908 225.792v54.008h271.806v-54.008c76.554-46.168 127.908-129.876 127.908-225.792z" fill="#FFCE54" p-id="2010"></path><path d="M511.968 296.154c5.402 0 10.696 0.438 16.004 0.812-138.214 8.306-247.838 122.694-247.838 263 0 142.32 95.93 225.792 95.93 225.792-76.554-46.17-127.908-129.876-127.908-225.792 0-145.708 118.12-263.812 263.812-263.812z" fill="#FFFFFF" opacity=".5" p-id="2011"></path><path d="M511.984 296.154c-5.402 0-10.696 0.438-16.004 0.812 138.212 8.306 247.838 122.694 247.838 263 0 142.32-95.932 225.792-95.932 225.792 76.554-46.17 127.908-129.876 127.908-225.792 0-145.708-118.116-263.812-263.81-263.812z" opacity=".2" p-id="2012"></path><path d="M440.02 983.664s15.988 31.976 71.95 31.976c55.958 0 71.948-31.976 71.948-31.976H440.02z" fill="#656D78" p-id="2013"></path><path d="M471.996 983.664H440.02s15.988 31.976 71.95 31.976c5.776 0 11.04-0.406 15.988-1.016-43-5.308-55.962-30.96-55.962-30.96z" fill="#FFFFFF" opacity=".4" p-id="2014"></path><path d="M551.94 983.664h31.976s-15.988 31.976-71.948 31.976c-5.778 0-11.04-0.406-15.988-1.016 43-5.308 55.96-30.96 55.96-30.96z" opacity=".3" p-id="2015"></path><path d="M376.064 823.778h271.806v15.988H376.064z" opacity=".2" p-id="2016"></path><path d="M471.98 168.246s-97.54 52.292-120.304 182.166l84.004-43.062 107.018-9.416c-89.656-52.244-70.718-129.688-70.718-129.688z" fill="#FFCE54" p-id="2017"></path><path d="M443.736 220.458c7.776 24.544 26.028 53.618 66.982 77.476h31.978c-57.866-33.726-70.498-77.944-72.168-105.066l-26.792 27.59z" opacity=".2" p-id="2018"></path><path d="M470.576 192.852c-0.89-14.818 1.404-24.608 1.404-24.608s-97.54 52.292-120.304 182.166l35.99-18.456c16.848-69.37 54.852-114.244 82.91-139.102z" fill="#FFFFFF" opacity=".5" p-id="2019"></path><path d="M432.01 575.954m-39.97 0a39.97 39.97 0 1 0 79.94 0 39.97 39.97 0 1 0-79.94 0Z" fill="#FFFFFF" opacity=".6" p-id="2020"></path><path d="M591.912 575.954m-39.972 0a39.972 39.972 0 1 0 79.944 0 39.972 39.972 0 1 0-79.944 0Z" fill="#FFFFFF" opacity=".6" p-id="2021"></path><path d="M551.94 727.846l-39.986-31.976-39.974 31.976v95.932h79.96z" fill="#FFFFFF" opacity=".6" p-id="2022"></path><path d="M615.878 991.658H408.028a7.99 7.99 0 0 1-5.652-2.342L370.4 957.338a7.986 7.986 0 0 1-2.344-5.652v-111.92a7.99 7.99 0 0 1 7.996-7.994h271.804a7.988 7.988 0 0 1 7.994 7.994v111.92a7.99 7.99 0 0 1-2.342 5.652l-31.976 31.978a7.998 7.998 0 0 1-5.654 2.342z m-204.54-15.99h201.23l27.292-27.292V847.76H384.044v100.616l27.294 27.292z" fill="#3A3847" p-id="2023"></path><path d="M360.06 895.726a7.992 7.992 0 0 1-0.42-15.972l303.782-15.988c4.498-0.296 8.182 3.152 8.4 7.556a7.994 7.994 0 0 1-7.556 8.4l-303.784 15.988c-0.14 0.016-0.28 0.016-0.422 0.016zM360.06 943.692a7.994 7.994 0 0 1-0.42-15.972l303.782-15.988c4.498-0.406 8.182 3.154 8.4 7.556a7.992 7.992 0 0 1-7.556 8.4l-303.784 15.988c-0.14 0.016-0.28 0.016-0.422 0.016zM647.856 847.76H376.05a7.99 7.99 0 0 1-7.996-7.994v-49.542c-80.192-50.122-127.908-135.856-127.908-230.258 0-149.876 121.93-271.804 271.806-271.804S783.76 410.088 783.76 559.964c0 94.402-47.716 180.136-127.91 230.258v49.542a7.99 7.99 0 0 1-7.994 7.996z m-263.812-15.988H639.86v-46.014a7.98 7.98 0 0 1 3.872-6.84c77.664-46.856 124.038-128.704 124.038-218.954 0-141.054-114.762-255.816-255.816-255.816-141.056 0-255.818 114.762-255.818 255.816 0 90.25 46.374 172.098 124.038 218.954a7.978 7.978 0 0 1 3.874 6.84v46.014zM511.954 1023.634c-60.208 0-78.352-34.912-79.1-36.396a8 8 0 0 1 3.574-10.726c3.952-1.952 8.712-0.39 10.698 3.514 0.624 1.202 15.144 27.622 64.828 27.622 49.76 0 64.234-26.498 64.828-27.622 2.044-3.874 6.838-5.45 10.742-3.436 3.904 2 5.496 6.73 3.53 10.648-0.752 1.484-18.894 36.396-79.1 36.396z" fill="#3A3847" p-id="2024"></path><path d="M471.98 815.784a7.99 7.99 0 0 1-7.994-7.994v-79.944a7.99 7.99 0 0 1 7.994-7.994 7.99 7.99 0 0 1 7.996 7.994v79.944a7.99 7.99 0 0 1-7.996 7.994zM551.94 815.784a7.99 7.99 0 0 1-7.994-7.994v-79.944c0-4.418 3.576-7.994 7.994-7.994s7.994 3.576 7.994 7.994v79.944a7.99 7.99 0 0 1-7.994 7.994z" fill="#3A3847" p-id="2025"></path><path d="M471.98 735.84a7.994 7.994 0 0 1-4.996-14.24l39.972-31.976c3.48-2.732 8.494-2.186 11.24 1.248a8.004 8.004 0 0 1-1.248 11.242l-39.97 31.978a8.06 8.06 0 0 1-4.998 1.748z" fill="#3A3847" p-id="2026"></path><path d="M551.94 735.84a8.058 8.058 0 0 1-4.996-1.748l-39.986-31.978a8.006 8.006 0 0 1-1.25-11.242 8.036 8.036 0 0 1 11.242-1.248l39.986 31.976a8.006 8.006 0 0 1 1.25 11.242 8 8 0 0 1-6.246 2.998zM551.94 703.864a7.99 7.99 0 0 1-7.994-7.994v-119.916c0-4.418 3.576-7.992 7.994-7.992s7.994 3.574 7.994 7.992v119.916a7.99 7.99 0 0 1-7.994 7.994zM471.98 703.864a7.99 7.99 0 0 1-7.994-7.994v-119.916a7.988 7.988 0 0 1 7.994-7.992 7.988 7.988 0 0 1 7.996 7.992v119.916a7.99 7.99 0 0 1-7.996 7.994z" fill="#3A3847" p-id="2027"></path><path d="M471.98 583.95a7.99 7.99 0 0 1-7.994-7.996c0-17.626-14.348-31.976-31.976-31.976s-31.976 14.35-31.976 31.976a7.99 7.99 0 0 1-7.994 7.996 7.99 7.99 0 0 1-7.994-7.996c0-26.45 21.516-47.964 47.964-47.964s47.966 21.516 47.966 47.964a7.99 7.99 0 0 1-7.996 7.996z" fill="#3A3847" p-id="2028"></path><path d="M432.01 623.92c-26.45 0-47.964-21.516-47.964-47.966a7.988 7.988 0 0 1 7.994-7.992 7.988 7.988 0 0 1 7.994 7.992c0 17.628 14.348 31.978 31.976 31.978 4.418 0 7.994 3.576 7.994 7.994s-3.576 7.994-7.994 7.994zM631.882 583.95a7.99 7.99 0 0 1-7.994-7.996c0-17.626-14.35-31.976-31.976-31.976-17.628 0-31.978 14.35-31.978 31.976 0 4.42-3.576 7.996-7.994 7.996s-7.994-3.576-7.994-7.996c0-26.45 21.516-47.964 47.966-47.964 26.45 0 47.964 21.516 47.964 47.964a7.99 7.99 0 0 1-7.994 7.996z" fill="#3A3847" p-id="2029"></path><path d="M591.912 623.92c-4.42 0-7.996-3.576-7.996-7.994s3.576-7.994 7.996-7.994c17.626 0 31.976-14.35 31.976-31.978a7.988 7.988 0 0 1 7.994-7.992 7.988 7.988 0 0 1 7.994 7.992c0 26.45-21.514 47.966-47.964 47.966zM519.948 623.92h-15.988c-4.42 0-7.994-3.576-7.994-7.994s3.574-7.994 7.994-7.994h15.988c4.418 0 7.994 3.576 7.994 7.994s-3.576 7.994-7.994 7.994z" fill="#3A3847" p-id="2030"></path><path d="M839.766 567.96a7.99 7.99 0 0 1-7.994-7.996c0-203.166-139.212-364.942-168.272-396.498-11.834 10.228-39.33 30.712-69.778 30.822h-0.266c-17.752 0-33.602-6.854-47.138-20.392-39.298-39.3-31.946-114.45-25.902-149.206C453.572 67.084 192.228 252.544 192.228 559.964a7.99 7.99 0 0 1-7.994 7.996 7.99 7.99 0 0 1-7.994-7.996C176.24 199.674 524.568 3.3 528.098 1.364a7.972 7.972 0 0 1 8.744 0.67 7.99 7.99 0 0 1 2.856 8.292c-0.264 1.078-26.73 107.612 17.926 152.268 10.57 10.57 22.296 15.708 35.834 15.708h0.14c33.008-0.094 64.298-31.338 64.61-31.666a8 8 0 0 1 5.652-2.374c2.232-0.124 4.17 0.828 5.684 2.342 1.78 1.78 178.216 180.902 178.216 413.36a7.99 7.99 0 0 1-7.994 7.996z" fill="#3A3847" p-id="2031"></path><path d="M344.088 849.586a8.014 8.014 0 0 1-4.106-1.124C238.992 788.146 176.24 677.6 176.24 559.964a7.988 7.988 0 0 1 7.994-7.994 7.99 7.99 0 0 1 7.994 7.994c0 112.032 59.754 217.314 155.966 274.758a8.02 8.02 0 0 1 2.764 10.976 8.004 8.004 0 0 1-6.87 3.888z" fill="#3A3847" p-id="2032"></path><path d="M679.894 849.57a8.004 8.004 0 0 1-6.87-3.886 8.02 8.02 0 0 1 2.764-10.976c96.182-57.444 155.936-162.71 155.936-274.742a7.988 7.988 0 0 1 7.994-7.994 7.99 7.99 0 0 1 7.994 7.994c0 117.622-62.736 228.166-163.71 288.482a8.034 8.034 0 0 1-4.108 1.122z" fill="#3A3847" p-id="2033"></path><path d="M360.108 320.136a7.994 7.994 0 0 1-7.558-10.602C391.882 195.6 465.704 162.28 468.828 160.92a7.968 7.968 0 0 1 8.26 1.14 8.004 8.004 0 0 1 2.748 7.884c-0.454 2.138-10.79 52.51 29.478 88.25a8 8 0 0 1 0.672 11.288 8.03 8.03 0 0 1-11.29 0.67c-32.696-29.026-36.958-66.108-36.272-87.156-22.062 14.6-67.466 52.698-94.76 131.75a7.994 7.994 0 0 1-7.556 5.39z" fill="#3A3847" p-id="2034"></path></svg>